<?xml version="1.0" encoding="utf-8"?>
<!-- Generator: Adobe Illustrator 24.3.0, SVG Export Plug-In . SVG Version: 6.00 Build 0)  -->
<svg version="1.1" id="Layer_1" xmlns="http://www.w3.org/2000/svg" xmlns:xlink="http://www.w3.org/1999/xlink" x="0px" y="0px"
	 viewBox="0 0 620.53 266.24" style="enable-background:new 0 0 620.53 266.24;" xml:space="preserve">
<style type="text/css">
	.st0{clip-path:url(#SVGID_2_);fill:#FDEBEC;}
	.st1{clip-path:url(#SVGID_2_);fill:#141111;}
	.st2{clip-path:url(#SVGID_2_);fill:#CDCCCC;}
	.st3{clip-path:url(#SVGID_2_);fill:#DBA9AE;}
	.st4{clip-path:url(#SVGID_2_);fill:#5F4538;}
	.st5{clip-path:url(#SVGID_2_);fill:#D68558;}
	.st6{clip-path:url(#SVGID_2_);fill:#E3915C;}
	.st7{clip-path:url(#SVGID_2_);fill:#2F3327;}
	.st8{clip-path:url(#SVGID_2_);fill:#292B22;}
	.st9{clip-path:url(#SVGID_2_);fill:#9B5063;}
	.st10{clip-path:url(#SVGID_2_);fill:#F5A16F;}
	.st11{clip-path:url(#SVGID_2_);}
	.st12{fill:none;}
	.st13{fill:#9B5063;}
	.st14{font-family:'Love-Regular';}
	.st15{font-size:96.2632px;}
	.st16{fill:#9B5063;stroke:#9B5063;stroke-width:5;stroke-miterlimit:10;}
	.st17{fill:#DBA9AE;}
	.st18{clip-path:url(#SVGID_2_);fill:none;}
	.st19{clip-path:url(#SVGID_2_);fill:#1C1B1B;}
	.st20{clip-path:url(#SVGID_2_);fill:#543F28;}
</style>
<g>
	<defs>
		<rect id="SVGID_1_" width="620.53" height="266.24"/>
	</defs>
	<clipPath id="SVGID_2_">
		<use xlink:href="#SVGID_1_"  style="overflow:visible;"/>
	</clipPath>
	<rect x="-71.26" y="-79.69" class="st0" width="720.33" height="1048"/>
	<path class="st1" d="M384.63,152.79c0.35-0.91,0.85-1.76,1.54-2.44c1.32-1.32,3.16-1.93,4.84-2.73c2.81-1.33,5.29-3.23,7.95-4.81
		c2.52-1.5,5.26-2.53,7.83-3.93c1.5-0.82,2.91-2.06,4.24-3.12c2.31-1.84,4.51-3.83,6.58-5.95c1.42-1.46,2.79-2.98,4.06-4.58
		c0.34-0.42,0.81-1.42,1.28-1.7c0,0,6.56-3.87,12.79-3.53c6.22,0.34,25.07,2.36,32.13,13.12s12.45,20.19,23.39,27.09
		c10.94,6.9,26.27,142.31,26.27,142.31H403.14c0,0,6.82-9.62,8.24-27.91c0-4.41-0.57-8.71-1.34-13.06
		c-1.92-10.85-4.59-21.59-7.31-32.26c-3.17-12.42-6.57-24.79-10.06-37.12c-1.58-5.57-3.18-11.13-4.8-16.68
		c-0.7-2.41-1.41-4.82-2.12-7.22c-0.32-1.08-0.57-2.21-0.97-3.27c-0.62-1.68-0.55-3.33-0.67-5.08c-0.12-1.74-0.27-3.45,0.01-5.2
		C384.23,154.07,384.39,153.42,384.63,152.79z"/>
	<path class="st2" d="M424.67,152.02c-1.5,1.63-1.72,4.03-1.85,6.25c-0.57,9.76-0.74,19.82,2.6,29.02c1.54,4.26,3.8,8.21,5.55,12.39
		c3.56,8.48,4.97,17.7,8.05,26.36c1.74,4.89,4.02,9.64,4.79,14.77c1.3,8.74-1.95,17.65-0.81,26.41c0.12,0.95,0.33,1.95,0.99,2.64
		c0.88,0.92,2.28,1.02,3.55,1.07c9.11,0.35,18.22,0.7,27.33,1.05c0.65,0.02,1.32,0.05,1.91-0.22c0.71-0.31,1.2-0.98,1.62-1.64
		c5.29-8.23,6.01-18.58,5.25-28.33c-0.75-9.75-2.83-19.42-2.52-29.2c0.06-1.81,0.19-3.63-0.13-5.42c-0.37-2.02-1.31-3.89-2.23-5.73
		c-8.21-16.43-15.43-33.36-21.62-50.65c0.43,1.2-16.21,0.26-17.58,0.15C435.5,150.6,427.81,148.61,424.67,152.02z"/>
	<path id="Icon_ionic-ios-heart_1_" class="st3" d="M371.84,38.83l-0.06,0.04c-2.29,1.66-3.59,4.37-3.45,7.19
		c-2.63-1.03-5.61-0.67-7.92,0.97l-0.06,0.04c-3.68,2.7-4.5,7.86-1.84,11.57c2.21,2.76,5.19,4.81,8.56,5.88
		c7.14,2.33,16.21,2.34,16.21,2.34s2.88-8.6,2.95-16.11c0.06-3.54-0.93-7.01-2.85-9.99C380.72,37.06,375.57,36.19,371.84,38.83z"/>
	<path id="Icon_ionic-ios-heart_5_" class="st3" d="M382.13,13.44l-0.03,0.02c-1.23,0.89-1.93,2.35-1.85,3.87
		c-1.42-0.56-3.02-0.36-4.26,0.52l-0.03,0.02c-1.98,1.45-2.42,4.23-0.99,6.23c1.19,1.49,2.79,2.59,4.61,3.16
		c3.84,1.26,8.72,1.26,8.72,1.26s1.55-4.63,1.59-8.67c0.03-1.9-0.5-3.77-1.53-5.37C386.92,12.49,384.14,12.02,382.13,13.44z"/>
	<path id="Icon_ionic-ios-heart_2_" class="st3" d="M603.54,98.62l-0.04-0.04c-1.39-1.57-3.47-2.33-5.54-2.03
		c0.57-2.01,0.09-4.18-1.28-5.76l-0.04-0.04c-2.25-2.52-6.11-2.76-8.66-0.53c-1.88,1.83-3.17,4.17-3.72,6.73
		c-1.21,5.42-0.57,12.11-0.57,12.11s6.54,1.51,12.08,1.03c2.61-0.21,5.1-1.18,7.16-2.81C605.47,105.04,605.74,101.18,603.54,98.62z"
		/>
	<path id="Icon_ionic-ios-heart_3_" class="st3" d="M529.93,25.66l-0.05,0c-1.94-0.1-3.79,0.78-4.93,2.35
		c-0.96-1.68-2.7-2.77-4.64-2.89l-0.05,0c-3.12-0.15-5.78,2.25-5.96,5.37c-0.01,2.42,0.69,4.8,2.03,6.82
		c2.8,4.32,7.63,8.23,7.63,8.23s5.24-3.34,8.51-7.31c1.55-1.86,2.52-4.14,2.79-6.55C535.42,28.55,533.05,25.87,529.93,25.66z"/>
	<path id="Icon_ionic-ios-heart_4_" class="st3" d="M503.36,12.77l-0.02,0.01c-0.95,0.33-1.67,1.11-1.92,2.09
		c-0.79-0.62-1.84-0.81-2.79-0.49l-0.02,0.01c-1.53,0.54-2.35,2.21-1.83,3.74c0.47,1.17,1.27,2.17,2.3,2.89
		c2.19,1.53,5.27,2.48,5.27,2.48s1.87-2.63,2.67-5.17c0.39-1.2,0.41-2.48,0.07-3.69C506.56,13.09,504.9,12.26,503.36,12.77z"/>
	<path class="st4" d="M463.21,162.31c-0.02,0.02-0.03,0.05-0.05,0.07c-3.13,4.87-5.81,10.98-3.74,16.7
		c1.15,3.15,3.06,6.39,6.24,7.46c-0.46-1.73-1.68-3.15-2.39-4.79c-0.89-2.04-0.96-4.37-0.59-6.56c0-0.69,0.28-1.49,0.45-2.16
		c0.9-3.65,2.53-7.14,4.9-10.07c1.18-1.46,2.55-2.77,4.05-3.9c1.76-1.31,3.51-2.16,5.57-2.9c0.25-0.09,0.52-0.18,0.79-0.15
		c0.27,0.03,0.53,0.24,0.54,0.51c0,0.16-0.09,0.31-0.18,0.44c-0.98,1.42-2.73,1.92-3.63,3.32c-0.39,0.6-0.76,1.21-1.1,1.83
		c-2.28,4.1-3.8,8.63-4.75,13.22c-1.62,7.85-1.5,16-0.14,23.88c4.39,25.42-18.53,17.9-18.62,13.66c-0.09-4.24-3.25,2.89-3.25,2.89
		s-1.19,10.87,15.56,11.91c16.75,1.04,33.67-16.4,33.67-16.4l67.35-38.94c0,0-11.16-27.05-14.64-31.65s6.93-30.45,6.93-30.45
		l-17.17-41.17l-42.47,12.3c0,0-6.79,9.79-6.3,21.88c0.5,12.09,3.15,28.85-12.3,42.8c-3.58,3.23-7.08,6.58-10.2,10.26
		c-2.99,3.52-6.44,7.43-7.58,11.99c-0.55,2.18-0.71,4.43-0.76,6.68"/>
	<path class="st5" d="M507.32,126.09c0,0,3.15,12.54,3.65,18.65c0.51,6.11,22.84,1.34,22.84,1.34l-4.49-4.24
		c0,0,0.54-14.26,2.48-18.04S507.32,126.09,507.32,126.09z"/>
	<path class="st6" d="M504.07,80.19c0,0-4.27,19.68-4.43,21.82s-1.83,17.55,10.53,28.08c0,0,8.09,6.1,24.87-7.63
		s14.04-52.03,14.04-52.03L504.07,80.19z"/>
	<path class="st7" d="M563.23,168.08c0,0,10.82,2.02,13.38,27.5s-3.7,107.14-3.7,107.14h-10.53l-11.84-80.22l6.23-54.99
		L563.23,168.08z"/>
	<path class="st8" d="M494.47,243.78l7.09,58.75h65.15c0,0-11.81-47.34-9.91-64.03c0,0,19.03-10.39,14.78-23.27
		c0,0-5.88-13.52-8.16-15.95c-2.28-2.43,0.91-14.3,4.56-22.29c0,0,2.14-9.43-9.63-9.37c-11.77,0.06-18.49-2.86-18.49-2.86
		s-3.12-8.21-1.66-15.31c1.46-7.1-0.8-9.29-0.8-9.29s-1.86-2.72-10.36,1.19c-8.5,3.92-17.26-0.27-17.26-0.27s-10.29-0.8-5.44,9.83
		c4.85,10.62,3.18,14.68,3.18,14.68s-1,6.1-20.92,9.92c-19.92,3.81-12.17,23.58-12.17,23.58L494.47,243.78z"/>
	<path class="st9" d="M553.51,67.98c0,0-10.68-18.31-39.52-9.16c0,0-18.84,8.58-20.25,17.78c-1.41,9.2,9.78,5.39,9.78,5.39
		s41.75,2.59,50.57,31.56c0,0,0.14,1.56-0.33,2.66c-0.47,1.1-0.08,2.66,3.33,0.31C560.49,114.17,575,97.91,553.51,67.98z"/>
	<path class="st6" d="M548.6,189.71c0,0,1.35-11.44,1.03-12.48c-0.16-0.55,0.96-1.57,1.25-1.91c1.15-1.31,2.4-2.53,3.65-3.74
		c0.91-0.89,1.81-1.75,2.83-2.5c0.08-0.06,0.16-0.12,0.26-0.13c0.15-0.02,0.31,0.08,0.38,0.22c0.08,0.14,0.1,0.29,0.12,0.45
		c0.17,1.2,0.39,2.39,0.65,3.57c0.12,0.52,0.37,2.78,1.29,2.56c0.13-0.03,0.24-0.12,0.32-0.23c0.34-0.43,0.3-1.05,0.22-1.6
		c-0.2-1.45-0.47-2.9-0.81-4.32c-0.26-1.12-0.59-2.37-1.41-3.23c-0.68-0.71-1.68-0.16-2.4,0.24c-3.42,1.93-6.85,5.3-6.85,5.3
		s-1.72,0.59-0.54-0.7c1.11-1.2,2.42-2.24,3.66-3.31c0.74-0.63,1.47-1.26,2.22-1.89c0.25-0.21,0.5-0.42,0.74-0.63
		c0.36-0.3,0.63-0.54,0.48-1.07c-0.1-0.34-0.32-0.64-0.63-0.82c-0.7-0.4-1.38,0.09-1.98,0.44c-0.61,0.35-1.2,0.74-1.78,1.14
		c-1.38,0.95-2.72,1.99-3.99,3.08c0,0-2.41,0.21-0.59-1.28s5.54-5.46,5.54-5.46s0.66-0.16,1.41,0.37c0.75,0.54,7.3,6.07,10.84,5.23
		s-12.27-9.57-12.27-9.57s-0.13-0.53-1.78,0.97c-1.65,1.49-5.65,5-5.65,5s-2.92,1.13-1.4-0.93c1.51-2.06,7.07-6.97,7.07-6.97
		s0.03-0.55,1.55-0.78s9.98-3.3,11.99-5.82c2-2.52-3.78,0.23-3.78,0.23s-9.56,2.36-10.11,2.36s-1.65,0.52-2.75,2
		c-1.1,1.49-10.37,9.88-10.37,9.88s-2.2,1.17-3.03,7.08c-0.83,5.91-2.12,18.39-2.12,18.39L548.6,189.71z"/>
	<path class="st6" d="M511.99,219.99c0,0,9.17-6.97,9.7-7.92c0.28-0.5,1.8-0.4,2.25-0.43c1.74-0.08,3.49-0.03,5.22,0.03
		c1.27,0.04,2.51,0.09,3.76,0.3c0.1,0.02,0.19,0.03,0.27,0.09c0.12,0.1,0.15,0.28,0.11,0.43c-0.04,0.15-0.14,0.28-0.24,0.4
		c-0.75,0.95-1.45,1.94-2.12,2.95c-0.29,0.45-1.74,2.2-0.95,2.7c0.11,0.07,0.25,0.09,0.39,0.07c0.55-0.05,0.96-0.52,1.31-0.95
		c0.91-1.15,1.76-2.35,2.55-3.58c0.63-0.97,1.29-2.07,1.34-3.26c0.04-0.98-1.05-1.32-1.85-1.56c-1.92-0.57-3.63-0.69-5.59-0.73
		c-0.08,0-0.17-0.01-0.23-0.06c-0.06-0.05-0.07-0.14-0.07-0.22c-0.04-1.41,1.5-0.85,2.37-0.77c0.97,0.09,1.93,0.19,2.9,0.29
		c0.32,0.03,0.64,0.07,0.97,0.1c0.47,0.05,0.82,0.08,1.1-0.4c0.18-0.3,0.24-0.68,0.15-1.02c-0.2-0.78-1.02-0.93-1.69-1.12
		c-0.68-0.19-1.36-0.35-2.05-0.49c-0.73-0.15-2.36-0.1-2.71-0.91c-0.69-1.58,2.52-0.94,3.27-0.93c0.91,0.01,1.83,0.01,2.74,0
		c0,0,0.58,0.36,0.71,1.28s0.7,9.47,3.76,11.43s-1.63-15.47-1.63-15.47s0.29-0.46-1.93-0.61c-1.21-0.08-2.42-0.18-3.63-0.28
		c-0.89-0.07-2.63,0.25-2.31-1.02c0.43-1.73,3.22-1,4.43-0.94c1.2,0.06,2.41,0.14,3.61,0.23c0,0,0.42-0.36,1.63,0.58
		c1.62,1.24,3.76,2.04,5.62,2.81c0.84,0.35,3.01,1.55,3.71,0.98c0.96-0.79,0.05-1.97-0.66-2.42c-0.98-0.62-1.95-1.23-2.92-1.85
		c-1.49-0.95-3.51-1.84-4.75-3.12c-0.38-0.4-1.52-0.83-3.35-0.59c-1.83,0.24-14.31-0.6-14.31-0.6s-2.37-0.77-7.19,2.74
		c-4.83,3.5-14.71,11.24-14.71,11.24L511.99,219.99z"/>
	<path class="st7" d="M496.12,192.35c0,0-4.22-17.72-18.99-12.24c-14.77,5.49,2.32,42.83,2.32,42.83s25.11,57.07,38.19,71.73
		c0,0,24.9,20.78,28.48-24.16c3.59-44.94,4.43-82.28,4.43-82.28s-1.6-5.2-7.47-5.2s-8.8,0-8.8,0s-4,0.93-4.4,3.73
		c-0.4,2.8-7.44,76.59-7.44,76.59L496.12,192.35z"/>
	<path class="st10" d="M438.08,55.42L426.9,81.09l1.26,16.51c0,0,1.37,11.74-0.52,18.88c-1.89,7.14-10.38,23.85-10.38,23.85
		s8.04,18.7,28.81,15.93c20.77-2.77,19.84-16.92,19.84-16.92s-10.15-9.07-10.15-9.07c0-0.03,0-0.05,0-0.08
		c0.09-1.55,0.2-3.09,0.32-4.64c0.21-2.73,0.45-5.46,0.78-8.18c0.16-1.28,0.33-2.55,0.55-3.82c0.09-0.52,0.19-1.05,0.31-1.57
		c0.13-0.54,0.13-1.3,0.64-1.61c0.49-0.3,1.01-0.06,1.5,0.1c0.56,0.19,1.12,0.36,1.69,0.53c1.13,0.33,2.27,0.62,3.42,0.88
		c4.05,0.91,7.53,0.93,11.51-0.35c0.62-0.2,1.28-0.43,1.68-0.94c0.39-0.5,0.45-1.18,0.48-1.81c0.11-2.28-0.09-4.58,0.18-6.85
		c0-0.03,0.15-1.06,0.24-1c0.01,0,2.67,1.66,2.93-0.63c0.26-2.3-1.46-2.84-1.46-2.84s-0.62-0.28,0.44-0.46s3.17-0.42,4.11-1.99
		c0.95-1.58-1.02-2.23-1.02-2.23s-1.98-1.63,0.42-2.86c2.4-1.23,4.92-2.51,4.92-2.51s1.97-0.85,0-2.86
		c-0.19-0.19-0.36-0.39-0.54-0.59c-2.3-2.61-4.3-5.55-6-8.58c-0.22-0.39-0.42-0.78-0.53-1.21c-0.28-1.12,0.59-2.47,0.87-3.56
		c0.84-3.31,0.18-6.71-1.35-9.71c-2.94-5.78-33.11-18.57-33.11-18.57L438.08,55.42z"/>
	<g class="st11">
		<rect x="-29.91" y="92.46" class="st12" width="430.35" height="173.78"/>
		<text transform="matrix(1 0 0 1 10.3996 158.9717)"><tspan x="0" y="0" class="st13 st14 st15">Match</tspan><tspan x="349.72" y="0" class="st16 st14 st15"> </tspan><tspan x="4.81" y="81.82" class="st17 st14 st15">maker</tspan></text>
	</g>
	<rect x="14.21" y="64.53" class="st18" width="349.56" height="210.13"/>
	<path class="st19" d="M385,151.55c-9.77,8.05-16.97,16.39-16.49,23.24c1.43,20.32,17.11,105.27,34.23,116.95
		c17.11,11.67,74.75-33.87,74.75-33.87s31.41-28.29,36.2-35.13c4.79-6.84-14.83-18.48-14.83-18.48l-77.76,49.32l-17.47-73.63
		C403.62,179.94,404.23,135.69,385,151.55z"/>
	<path class="st1" d="M458.72,129.75c-0.19-0.16-0.39-0.31-0.61-0.43c-0.43-0.23-0.95-0.33-1.42-0.17c-0.7,0.24-1.09,1.06-0.96,1.79
		c0.17,0.96,1.05,1.8,1.59,2.57c0.35,0.5,0.7,1,1.05,1.5c0.18,0.26,0.91,1,0.91,1.3c0.5,0.72,1.01,1.45,1.37,2.26
		c0.72,1.62,1.2,4.77,0.42,6.46c-0.61,1.33-3.08,0.83-4.3,1.19c-0.78,0.23-1.56,0.55-2.19,1.07s-1.09,1.29-1.1,2.11
		c-0.01,0.89,0.5,1.71,1.17,2.29c0.67,0.58,1.5,0.94,2.31,1.3c0.88,0.39,1.5,0.85,2.46,0.66c0.36-0.07,2.1-0.56,2.1-1.06
		c2.72-2.76,5.17-5.97,6.07-9.74c0.27-1.13,0.39-2.32,0.11-3.45c-0.48-1.91-2.15-3.7-3.41-5.17c-0.88-1.02-1.86-1.96-2.95-2.75
		c-0.57-0.41-1.18-0.71-1.77-1.08C459.26,130.23,459,129.98,458.72,129.75z"/>
	<path class="st1" d="M422.69,141.59c1.45,1.23,3.3,1.96,4.61,3.34c1.31,1.37,1.82,3.88,0.32,5.04c-0.5,0.39-1.12,0.55-1.69,0.83
		c-1.92,0.94-3.08,3.15-5.14,3.74c-1.37,0.39-2.88-0.06-4.01-0.93c-1.13-0.86-1.93-2.1-2.55-3.37c-0.68-1.39-1.19-2.89-1.37-4.43
		c-0.26-2.2,0.15-4.42,0.66-6.58c0.48-2.03,1.06-4.08,2.21-5.82c0.61-0.92,2.46-3.26,3.79-2.95c1.74,0.41,0.57,2.34,0.41,3.49
		C419.56,136.73,420.53,139.74,422.69,141.59z"/>
	<path class="st20" d="M485.47,40.07c-1.97-2.95-4.85-4.64-8.06-5.92c-1.69-0.67-3.21-1.67-5-2.19c-1.11-0.32-4.22-1.31-5.29-0.69
		c1.69-0.98,3.6-1.59,5.54-1.77c-1.07-0.8-2.83-1.06-4.14-1.26c-1.56-0.24-3.15-0.24-4.71-0.01c-0.67,0.1-1.3,0.29-1.96,0.42
		c-0.63,0.12-1.25-0.04-1.89-0.12c-1.4-0.17-2.81-0.28-4.22-0.33c-0.75-0.03-1.52-0.04-2.22-0.29c-0.43-0.16-0.83-0.4-1.22-0.64
		c-1.7-1.02-3.43-1.98-5.2-2.88c-0.46-0.23-0.97-0.36-1.41-0.61c-0.47-0.27-0.91-0.6-1.39-0.86c-0.94-0.5-1.93-0.87-2.95-1.16
		c-1.06-0.31-2.15-0.52-3.24-0.68c-0.55-0.08-1.1-0.15-1.65-0.21c-0.41-0.04-1.1,0.03-1.47-0.14c3.57,1.69,6.8,4.08,9.46,6.99
		c-2.86-0.93-5.75-1.81-8.74-2.15c-2.99-0.34-6.1-0.11-8.84,1.12c2.54,0.24,5,1.55,6.82,3.34c-5.43-0.02-10.33,3.04-14.86,6.03
		c-2.58,1.71-5.19,3.46-7.17,5.84c-1.31,1.57-2.31,3.38-3.31,5.18c-1.73,3.13-3.5,6.35-4.01,9.89c-0.08,0.52-0.07,1.17,0.38,1.45
		c1.16-2.46,2.36-5,4.36-6.84c-1.6,3.69-2.37,7.74-2.23,11.76c0.07,1.86-0.37,3.93-0.51,5.78c-0.13,1.72-0.23,3.46,0.01,5.16
		c0.23,1.67,0.78,3.27,1.32,4.86c1.17,3.44,2.36,7.11,4.37,10.15c4.41,6.69,10.78,11.89,13.13,19.81c0.19,0.64,0.36,1.31,0.72,1.88
		c0.36,0.57,0.95,1.04,1.62,1.06c2.61,0.08,5.44-5.87,6.5-7.81c1.7-3.12,3.11-6.39,4.8-9.53c0.96-1.79,2.01-3.54,2.72-5.44
		c0.29-0.78,0.52-1.62,0.37-2.44c-0.3-1.57-2.43-2.84-3.09-4.38c-0.43-1-0.64-2.06-1.14-3.03c-0.14-0.27-0.29-0.53-0.41-0.81
		c-0.09-0.19-0.16-0.38-0.23-0.58c-0.13-0.41-0.22-0.84-0.25-1.27c-0.03-0.36,0.05-0.69,0.06-1.04c0.02-0.76-0.04-1.47,0.13-2.22
		c0.32-1.44,1.09-2.78,2.21-3.74c1.73-1.5,4.24-2.06,6.44-1.42c2.21,0.64,4,2.37,5.11,4.39c0.87,1.57,1.36,3.32,1.69,5.07
		c0.13,0.69,0.04,1.39,0.63,1.76c0.62,0.39,2.03,0.14,2.62-0.19c2.21-1.21,2.58-4.75,2.88-6.93c0.43-3.11,0.39-6.51,2.26-9.03
		c1.79-0.47,3.42-0.63,5.27-0.49c1.85,0.13,3.73,0.91,4.82,2.41c0.59-2.15-0.63-4.64-2.69-5.49c4.32,1.02,8.16,3.43,11.92,5.81
		c-0.47-1.76-1.28-3.43-2.38-4.9c0.57,0.77,1.88,1.29,2.73,1.68c1.13,0.52,2.18,1.16,3.13,1.96c1.86,1.57,3.3,3.64,4.07,5.95
		c0.59-3.09,0.51-6.25,0.31-9.37c-0.09-1.47-0.12-2.92-0.24-4.39c-0.07-0.79-0.14-1.59-0.22-2.38c-0.05-0.45,0.04-2.07-0.26-2.37
		c1.34,1.37,2.29,3.12,2.73,4.98c0.82-3.86,0.06-8.03-2.07-11.35c-2.13-3.32-5.61-5.74-9.46-6.6
		C480.88,38.78,483.21,39.19,485.47,40.07z"/>
</g>
</svg>
